<?xml version="1.0" encoding="utf-8"?>
<!-- Generator: Adobe Illustrator 16.0.0, SVG Export Plug-In . SVG Version: 6.00 Build 0)  -->
<!DOCTYPE svg PUBLIC "-//W3C//DTD SVG 1.1//EN" "http://www.w3.org/Graphics/SVG/1.1/DTD/svg11.dtd">
<svg version="1.1" id="图层_1" xmlns="http://www.w3.org/2000/svg" xmlns:xlink="http://www.w3.org/1999/xlink" x="0px" y="0px"
	 width="300px" height="300px" viewBox="0 0 300 300" enable-background="new 0 0 300 300" xml:space="preserve">
<rect x="-334" y="22" fill="#0084FF" width="256" height="256"/>
<g id="Facebook_Messenger_1_">
	<g>
		<path fill="#FFFFFF" d="M-206,98.422c-28.31,0-51.259,21.381-51.259,47.758c0,15.029,7.453,28.433,19.103,37.189v18.209
			l17.453-9.639c4.659,1.297,9.593,1.998,14.704,1.998c28.311,0,51.26-21.383,51.26-47.757
			C-154.74,119.804-177.689,98.422-206,98.422z M-200.906,162.734l-13.053-14.008l-25.471,14.008l28.019-29.927l13.373,14.009
			l25.15-14.009L-200.906,162.734z"/>
	</g>
</g>
<image overflow="visible" width="256" height="256" xlink:href="308E1B2B283502EC.jpg"  transform="matrix(1 0 0 1 -646.8335 21)">
</image>
<path fill="#FFFFFF" d="M-119.763,78.295c0-8.026-6.51-14.531-14.533-14.531c-3.643,0-6.96,1.349-9.51,3.562
	c-17.328-13.067-38.87-20.826-62.195-20.826C-263.07,46.5-309.5,92.93-309.5,150c0,57.069,46.43,103.5,103.5,103.5
	s103.5-46.431,103.5-103.5c0-23.324-7.759-44.867-20.826-62.196C-121.111,85.256-119.763,81.936-119.763,78.295L-119.763,78.295
	L-119.763,78.295z M-206.001,250.018c-55.149,0-100.019-44.869-100.019-100.019S-261.15,49.98-206.001,49.98
	c22.425,0,43.146,7.419,59.845,19.93c-1.678,2.37-2.673,5.259-2.673,8.385c0,8.025,6.507,14.528,14.531,14.528
	c3.126,0,6.011-0.995,8.381-2.674c12.513,16.699,19.932,37.421,19.932,59.849C-105.982,205.148-150.85,250.018-206.001,250.018
	L-206.001,250.018L-206.001,250.018z"/>
<g>
	<g id="Facebook_Messenger_2_">
		<g>
			<path fill="#0084FF" d="M150,83.971c-36.243,0-65.622,27.372-65.622,61.139c0,19.24,9.541,36.4,24.456,47.609v23.312
				l22.343-12.34c5.964,1.66,12.279,2.558,18.823,2.558c36.243,0,65.622-27.374,65.622-61.138
				C215.622,111.343,186.243,83.971,150,83.971z M156.521,166.303l-16.711-17.934l-32.607,17.934l35.868-38.312l17.12,17.935
				l32.197-17.935L156.521,166.303z"/>
		</g>
	</g>
	<path fill="#0084FF" d="M260.4,58.204c0-10.275-8.334-18.603-18.605-18.603c-4.663,0-8.91,1.726-12.174,4.561
		C207.438,27.433,179.859,17.5,149.999,17.5C76.939,17.5,17.5,76.939,17.5,150c0,73.06,59.439,132.5,132.5,132.5
		S282.5,223.06,282.5,150c0-29.859-9.933-57.438-26.661-79.623C258.674,67.115,260.4,62.864,260.4,58.204L260.4,58.204L260.4,58.204
		z M149.999,278.042c-70.603,0-128.043-57.441-128.043-128.043c0-70.602,57.44-128.043,128.043-128.043
		c28.708,0,55.234,9.498,76.612,25.514c-2.147,3.034-3.422,6.732-3.422,10.734c0,10.274,8.33,18.599,18.604,18.599
		c4.002,0,7.694-1.274,10.729-3.423c16.019,21.378,25.517,47.906,25.517,76.618C278.042,220.601,220.604,278.042,149.999,278.042
		L149.999,278.042L149.999,278.042z"/>
</g>
</svg>
